<svg id="Layer_1" data-name="Layer 1" xmlns="http://www.w3.org/2000/svg" xmlns:xlink="http://www.w3.org/1999/xlink" viewBox="0 0 257.6 285.12"><defs><style>.cls-1{fill:url(#linear-gradient);}.cls-2,.cls-3{fill:none;stroke-linecap:round;stroke-linejoin:round;stroke-width:3px;}.cls-2{stroke:#d3223a;}.cls-3{stroke:#a61825;}</style><linearGradient id="linear-gradient" x1="637.73" y1="259.18" x2="898.1" y2="259.18" gradientTransform="translate(588.97 -188.89) rotate(45)" gradientUnits="userSpaceOnUse"><stop offset="0" stop-color="#7a0e11"/><stop offset="0.1" stop-color="#851116"/><stop offset="0.5" stop-color="#af1a2a"/><stop offset="0.81" stop-color="#c92036"/><stop offset="1" stop-color="#d3223a"/></linearGradient></defs><path class="cls-1" d="M995.35,497.52c-1.55.9-1.71.86-2.21.73a1.51,1.51,0,0,1-.93-.71c-.77-1.33.15-2.09,4-5.3,1.58-1.31,3.54-2.89,5.59-4.54-10.26,6.3-10.5,6.24-11.39,6a1.6,1.6,0,0,1-1-.73c-.81-1.41-.06-2.08,6.23-6.69,2.43-1.78,5.45-3.93,8.61-6.17-19.44,11.91-21.82,13.07-23.08,12.75a1.68,1.68,0,0,1-1-.74c-.83-1.43.63-2.48,2.83-4.06,1.56-1.12,3.84-2.66,7-4.71l4.38-2.84c-7.85,4.58-9.82,5.31-10.79,5.06a1.74,1.74,0,0,1-1-.75c-.87-1.51.8-2.73,3.11-4.42,1.74-1.28,4.29-3,7.79-5.33,3.31-2.18,7.21-4.7,11.36-7.35-28.84,17.64-32.2,19.38-33.63,19a1.71,1.71,0,0,1-1-.74c-1-1.7-1.22-2.13,25.63-19-27.84,17-31.22,18.68-32.63,18.32a1.68,1.68,0,0,1-1-.74c-.76-1.33-1.11-1.92,11.7-10.19-8.78,5.15-10.65,5.84-11.61,5.59a1.72,1.72,0,0,1-1-.75c-.81-1.41-1.06-1.83,13.72-11.13-23.53,14.15-27.69,16.2-29.09,15.84a1.75,1.75,0,0,1-1-.75c-.72-1.25-1-1.81,9.69-8.69C940,483.2,935.42,485.39,934,485a1.66,1.66,0,0,1-1-.78,1.5,1.5,0,0,1,.55-2.05,1.48,1.48,0,0,1,1.12-.15c3.91-1,30.19-17.11,51.39-30.08,39.15-24,46.91-28.4,48.85-27.91a1.62,1.62,0,0,1,1,.76c.75,1.3,1.13,2-10.66,9.56,10.59-6.19,12.74-7,13.73-6.78a1.7,1.7,0,0,1,1,.75c.63,1.09,1,1.68-6.24,6.56,5.69-3.2,7.36-3.77,8.21-3.55a1.79,1.79,0,0,1,1,.76c.76,1.33,1.06,1.84-11.3,9.75,9.54-5.56,12.6-6.92,13.72-6.63a1.62,1.62,0,0,1,1,.76c.87,1.5-.68,2.6-3.24,4.43-1.81,1.29-4.47,3.07-8.12,5.44l-2.59,1.67c11.34-6.71,14.75-8.29,16-8a1.62,1.62,0,0,1,1,.76c.83,1.44-.6,2.48-2.76,4-1.52,1.11-3.75,2.62-6.81,4.63-4,2.64-9,5.8-14.35,9.22,19.22-11.73,21.38-12.76,22.58-12.46a1.69,1.69,0,0,1,1,.74c.93,1.62,1.19,2.07-21.67,16.66a1.56,1.56,0,0,1,.86,0,1.62,1.62,0,0,1,1,.73c.81,1.41.08,2-5.9,6.4-2.41,1.76-5.47,3.94-8.66,6.21,1.68-.89,2-.82,2.43-.7a1.59,1.59,0,0,1,1,.72c.83,1.43.83,1.43-11.55,11.32l-3.24,2.59a1.6,1.6,0,0,1,.47.5,1.5,1.5,0,0,1-.55,2,1.8,1.8,0,0,1-.38.16c-.59.3-2.68,1.56-4.22,2.49S996.07,497.11,995.35,497.52Zm5.76-5.11a1.47,1.47,0,0,0,.34.4A1.64,1.64,0,0,1,1001.11,492.41Zm-65.56-9.66Zm0,0h0Zm79.23,184.47c-3.55,2-3.86,2-4.47,1.82a1.6,1.6,0,0,1-1-.73c-.84-1.45,0-2.08,6.46-6.6,2.26-1.57,5-3.41,7.91-5.4-30.26,18.48-35.1,21-36.73,20.61a1.75,1.75,0,0,1-1-.76c-.78-1.36-.68-2,7.57-7.49-13.28,8-17.1,9.78-18.44,9.44a1.68,1.68,0,0,1-1-.77c-.85-1.48-1.19-2.07,15.59-13-25.28,15.28-31.42,18.55-33.1,18.12a1.62,1.62,0,0,1-1-.76c-.9-1.57.87-2.81,3.57-4.69-4.05,2.15-5.82,2.75-6.6,2.55a1.62,1.62,0,0,1-1-.77c-.68-1.17,0-2.19,2.06-3.75-5.44,3-7.64,3.83-8.54,3.6a1.69,1.69,0,0,1-1-.77c-.76-1.32-1.1-1.91,11.43-9.92-20.18,12.06-24,13.89-25.31,13.55a1.75,1.75,0,0,1-1-.75c-.65-1.12-1-1.7,6.93-6.79-4.62,2.51-6.11,3-6.83,2.81a1.7,1.7,0,0,1-1-.75c-1.16-2-1.31-2.26,45.17-30.72,4.89-3,10-6.15,15.12-9.27-6.06,3.69-12.29,7.51-18.15,11.09-42.89,26.29-52,31.49-54.18,30.94a1.67,1.67,0,0,1-1-.77c-1-1.73-1.25-2.17,28.72-20.4C916.23,673.56,909,677.42,907.24,677a1.62,1.62,0,0,1-1-.77c-.71-1.24-.55-2.34,7.84-7.89-4.81,2.59-6.78,3.3-7.6,3.09a1.62,1.62,0,0,1-1-.76c-.88-1.53.54-2.71,4.52-5.44.64-.44,1.35-.92,2.14-1.44-9.26,5.23-13.61,7.19-14.9,6.86a1.66,1.66,0,0,1-1.07-.79c-.77-1.35.16-2.45,3.59-4.88-1.84.81-2.94,1.08-3.52.93a1.7,1.7,0,0,1-1.08-.8c-.5-.87-.85-1.47,2.66-4.09-5.49,3-7.67,3.84-8.56,3.62a1.68,1.68,0,0,1-1-.78c-.72-1.26-1.13-2,10.29-9.29-9.52,5.49-12.54,6.85-13.6,6.58a1.72,1.72,0,0,1-1-.75c-.41-.7-.55-1.36.81-2.72-5.9,3.17-8.82,4.34-9.87,4.07a1.74,1.74,0,0,1-1.06-.79c-.88-1.52.45-2.8,4.9-5.85l1.5-1c-6.7,3.77-9.22,4.77-10.2,4.52a1.61,1.61,0,0,1-1-.77c-.81-1.4-1.14-2,14.32-11.71-11.47,6.81-14.79,8.34-16,8a1.62,1.62,0,0,1-1-.76c-.9-1.56.92-2.85,3.43-4.63.79-.55,1.72-1.18,2.8-1.9-5.32,3-6.65,3.42-7.43,3.22a1.72,1.72,0,0,1-1-.75c-.88-1.52.75-2.8,3.48-4.76.92-.66,2-1.43,3.37-2.31-4.73,2.61-6.52,3.25-7.35,3a1.62,1.62,0,0,1-1-.76c-.92-1.59-1.12-1.95,20.6-15.53-18.9,11.48-21.32,12.61-22.49,12.32a1.66,1.66,0,0,1-1-.74c-.86-1.49-.66-2.05,10.12-9.09l3.72-2.41c-15.08,9.1-19.19,11.13-20.59,10.78a1.6,1.6,0,0,1-1-.77c-1-1.64-1.16-2,22.69-17.35-18,10.93-20.27,12-21.44,11.71a1.66,1.66,0,0,1-1-.74c-.64-1.11-1-1.71,6-6.5-7.76,4.45-9.9,5.25-10.88,5a1.64,1.64,0,0,1-1-.77c-.86-1.47-.63-2.15,10.27-9.32L860,618.9c-14.85,8.92-17.78,10.25-19,9.93a1.77,1.77,0,0,1-1-.75c-.79-1.38-1-1.81,12.24-10.36-5.71,3.27-7.12,3.71-8,3.5a1.75,1.75,0,0,1-1-.76c-.82-1.42.55-2.41,2.63-3.91,1.44-1,3.54-2.46,6.43-4.35,1.77-1.16,3.74-2.43,5.85-3.79C843.83,617,841,618.29,839.73,618a1.62,1.62,0,0,1-1-.76c-.86-1.49-.66-2.06,10.33-9.26,2.52-1.66,5.42-3.52,8.51-5.5-21.12,12.82-22.48,13.31-23.6,13a1.67,1.67,0,0,1-1-.73c-.84-1.46-1.11-1.93,16.1-13.11-16.64,10.09-19.29,11.28-20.56,11a1.74,1.74,0,0,1-1-.75c-.77-1.33-1.13-2,11.56-10.25-4.63,2.56-6.08,3-6.86,2.81a1.75,1.75,0,0,1-1-.76c-.93-1.62-1.2-2.08,20.79-16.11-20.74,12.57-23.79,14-25.13,13.67a1.73,1.73,0,0,1-1-.76c-.66-1.15-1-1.76,7.08-7.22-2.14,1.06-3.12,1.3-3.71,1.16a1.62,1.62,0,0,1-1-.77c-.66-1.14-1-1.68,7.07-7-5.55,3.15-6.86,3.56-7.62,3.37a1.67,1.67,0,0,1-1-.75c-.86-1.49.7-2.62,3.07-4.34,1.55-1.12,3.74-2.61,6.67-4.53-14.11,8.4-16.38,9.37-17.44,9.1a1.7,1.7,0,0,1-1-.74c-.88-1.52.73-2.78,3.64-4.88.63-.46,1.34-1,2.15-1.51-3.92,2.12-5.22,2.5-5.92,2.32a1.72,1.72,0,0,1-1-.75c-.71-1.22-1-1.75,8.74-8.09-4.14,2.24-5.5,2.64-6.26,2.45a1.62,1.62,0,0,1-1-.76c-.89-1.54.85-2.79,3.26-4.51,1-.71,2.24-1.56,3.75-2.57-3.47,1.84-5,2.32-5.69,2.14a1.62,1.62,0,0,1-1-.77c-.68-1.18-1.06-1.84,8.15-8-9.79,5.72-13,7.12-14.13,6.82a1.66,1.66,0,0,1-1-.76c-.72-1.25-1.06-1.84,10.44-9.23-2.45,1.21-3.63,1.53-4.24,1.38a1.64,1.64,0,0,1-1-.76c-.76-1.33-1.1-1.92,11.26-9.76-7.21,4.14-9.76,5.19-10.77,4.94a1.65,1.65,0,0,1-1.19-2.07c.19-.71,1.44-1.91,4.12-3.84-7.07,3.57-8,3.32-8.8,3.13a1.86,1.86,0,0,1-1.14-.85,1.77,1.77,0,0,1-.16-1.32c.22-.81,1.78-2.24,5.08-4.56a4.21,4.21,0,0,1-2,.22,1.87,1.87,0,0,1-1.18-.86,1.75,1.75,0,0,1-.16-1.33c.24-.88,2.09-2.5,6.1-5.23a5.05,5.05,0,0,1-2.52.46,1.76,1.76,0,0,1-1.11-.82,1.93,1.93,0,0,1-.17-1.44,7.6,7.6,0,0,1,2.37-2.76c-2.72,1.18-4.46,1.66-5.26,1.45a1.79,1.79,0,0,1-1.17-.86,1.74,1.74,0,0,1-.17-1.32c.23-.83,1.89-2.32,5.46-4.77a4.31,4.31,0,0,1-2,.26,1.74,1.74,0,0,1-1.3-2.17c.2-.73,1.48-2,4.16-3.89-2.15.87-3.55,1.21-4.24,1a1.81,1.81,0,0,1-1.33-2.26c.34-1.24,3.43-3.75,9.54-7.76a1.54,1.54,0,0,1-.45,0,1.67,1.67,0,0,1-1-.78,1.88,1.88,0,0,1-.17-1.42c.2-.75,1.34-1.92,3.44-3.56a5.05,5.05,0,0,1-2.52.56,1.72,1.72,0,0,1-1-.79c-.89-1.54.3-2.86,6.35-6.9-3.19,1.56-4.92,2.12-5.66,1.93a1.74,1.74,0,0,1-1.06-.79c-.68-1.18-.42-2.45,6.71-7.34a5.86,5.86,0,0,1-2.93.68,1.7,1.7,0,0,1-1.07-.79c-.61-1.07-.52-2.16,4.62-5.86-2.49,1.14-3.94,1.56-4.62,1.38a1.69,1.69,0,0,1-1.09-.8c-.91-1.58.46-2.82,5.63-6.29,2.07-1.38,4.74-3.09,8.08-5.15a3.56,3.56,0,0,1-1.7.2,1.76,1.76,0,0,1-1.1-.81c-.58-1-.54-2,4.06-5.32-2.35,1.14-3.48,1.44-4.06,1.3a1.62,1.62,0,0,1-1-.76c-.88-1.53.38-2.71,5.18-6l1.25-.85a3.44,3.44,0,0,1-1.72.24,1.7,1.7,0,0,1-1.07-.79c-.87-1.51.47-2.81,4.94-5.94,1.9-1.34,4.38-3,7.49-5a2.34,2.34,0,0,1-1.14.11,1.69,1.69,0,0,1-1-.76c-.78-1.37-1.08-1.87,12.36-10.38-1.55.72-2.21.82-2.68.7a1.7,1.7,0,0,1-1-.75c-.85-1.46.09-2.18,5.91-6.26,3.06-2.15,7-4.86,11.3-7.76a1.35,1.35,0,0,1-.34-.06,1.57,1.57,0,0,1-1-.73,1.49,1.49,0,0,1,.55-2,1.41,1.41,0,0,1,.68-.2c1.39-.59,7.39-4.28,11.81-7,11.6-7.13,11.74-7.1,12.66-6.87a1.55,1.55,0,0,1,.95.73c.85,1.46.12,2.21-7.1,7.31-2.36,1.67-5.18,3.6-8.16,5.64l7.39-4.52c30.26-18.53,33.94-20.45,35.46-20.07a1.75,1.75,0,0,1,1,.75c.67,1.17,1,1.74-7.58,7.39,12.75-7.57,15.1-8.55,16.19-8.27a1.7,1.7,0,0,1,1,.75c1.15,2,1.27,2.19-42.27,28.32-13.61,8.17-30.28,18.18-41.65,25.39,12.16-7,29.93-17.9,45.38-27.35,40.25-24.64,48.21-29.2,50.09-28.72a1.74,1.74,0,0,1,1,.75c.37.64.65,1.12-.65,2.38,8.55-4.78,12.68-6.58,14-6.24a1.71,1.71,0,0,1,1.09.81c.57,1,.93,1.6-4,5,6.85-3.87,9.3-4.85,10.24-4.61a1.62,1.62,0,0,1,1,.76c.49.84.52,1.71-2,3.85,4-2,6.2-2.75,7.11-2.51a1.76,1.76,0,0,1,1.11.82c.51.88.55,1.72-2.68,4.22,6.47-3.47,9.78-4.8,10.91-4.51a1.79,1.79,0,0,1,1.1.81c.45.79.8,1.39-1.82,3.5,6.51-3.43,10-4.79,11.16-4.49a1.77,1.77,0,0,1,1.12.84c.76,1.31.21,2.5-4.41,5.82a6.87,6.87,0,0,1,3.29-.71,1.86,1.86,0,0,1,1.15.85,1.75,1.75,0,0,1,.16,1.35,4.18,4.18,0,0,1-1.23,1.62c4.45-2.24,6.86-3.11,7.76-2.88a1.73,1.73,0,0,1,1.08.8,1.86,1.86,0,0,1,.16,1.43,3.2,3.2,0,0,1-.77,1.2c6.08-3.24,9.14-4.45,10.21-4.18a1.73,1.73,0,0,1,1.09.8,1.89,1.89,0,0,1,.17,1.46c-.19.7-1.11,1.74-2.82,3.15,2.74-1.26,4.32-1.73,5-1.55a1.73,1.73,0,0,1,1.08.8,1.91,1.91,0,0,1,.17,1.47,3.31,3.31,0,0,1-.71,1.15c4.18-2.07,6.45-2.84,7.37-2.61a1.76,1.76,0,0,1,1.11.82,1.72,1.72,0,0,1,.16,1.32c-.2.73-1.52,2-4.28,4,2.9-1.28,4.74-1.81,5.57-1.6a1.83,1.83,0,0,1,1.16.86,2,2,0,0,1,.18,1.47c-.19.69-1.1,1.71-2.78,3.12a4.24,4.24,0,0,1,2-.23,1.86,1.86,0,0,1,1.19.88,1.79,1.79,0,0,1,.17,1.38,6.87,6.87,0,0,1-2.17,2.47c2.69-1.22,4.25-1.67,5-1.49a1.74,1.74,0,0,1,1.09.81,1.85,1.85,0,0,1,.17,1.44c-1.23,4.57-36,25.18-118.82,72.72l-.93.54a1.87,1.87,0,0,1,.36.43c.82,1.42,1.21,2.1-14.22,11.86,2.9-1.53,3.83-1.74,4.4-1.59a1.65,1.65,0,0,1,1,.74c.75,1.3,1.06,1.83-11.74,9.93,7.54-4.34,9.29-5,10.18-4.74a1.72,1.72,0,0,1,1,.75c.92,1.6,1.14,2-20.4,15.38,8.88-5.25,10.6-5.88,11.56-5.64a1.69,1.69,0,0,1,1,.75c.9,1.55-.86,2.8-3.28,4.53-1.32,1-3.07,2.13-5.31,3.59,5.84-3.35,7.21-3.78,8-3.57a1.68,1.68,0,0,1,1,.74c.77,1.33,1.08,1.85-11.86,10.14,6.71-3.9,8.06-4.34,8.84-4.14a1.66,1.66,0,0,1,1,.74c.84,1.45-.64,2.49-2.87,4.05-1.57,1.11-3.89,2.63-7.06,4.66L878,551.77c11.51-6.81,13.37-7.57,14.33-7.32a1.62,1.62,0,0,1,1,.73c.84,1.45-.61,2.49-2.81,4.07-1.54,1.11-3.81,2.63-6.91,4.65L882,555c11.08-6.59,13-7.36,14-7.1a1.65,1.65,0,0,1,1,.74c.69,1.2,1,1.68-8,7.58,2.17-1.08,3.19-1.34,3.79-1.19a1.65,1.65,0,0,1,1,.77c.86,1.49.41,2-9.07,8.17-1.67,1.07-3.51,2.25-5.49,3.5,18.1-10.94,20.89-12.21,22.14-11.9a1.75,1.75,0,0,1,1,.75c.85,1.49.62,2.12-10.73,9.57-4.44,2.91-10,6.47-15.85,10.16,21.76-13.27,24.34-14.54,25.62-14.21a1.71,1.71,0,0,1,1,.74c.94,1.63,1.11,1.92-21.68,16.26,15-9.08,17.94-10.41,19.19-10.1a1.75,1.75,0,0,1,1,.76c.91,1.57,1.06,1.84-19.2,14.84,18-10.87,21.38-12.45,22.69-12.11a1.72,1.72,0,0,1,1,.75c.85,1.47.66,2-10.09,9.07-1.43.94-3,2-4.64,3,13.87-8.39,16-9.32,17.18-9a1.7,1.7,0,0,1,1,.75c.75,1.29,1.08,1.86-10.4,9.45,7.23-4.24,8.84-4.8,9.75-4.57a1.73,1.73,0,0,1,1,.76c.82,1.41,1.09,1.88-13.91,11.54,13.67-8.22,15.84-9.15,16.94-8.87a1.71,1.71,0,0,1,1,.74c.84,1.47.62,2.14-10.18,9.24-5.82,3.83-13.73,8.82-21.46,13.7l7.15-4.36c30.58-18.67,32.18-19.35,33.45-19a1.63,1.63,0,0,1,1,.74c.84,1.45-.62,2.49-2.83,4.06-1.56,1.11-3.84,2.64-7,4.67l-1.58,1c5.84-3.31,7.49-3.87,8.34-3.65a1.74,1.74,0,0,1,1,.75c1,1.83,1.12,1.94-32.11,23.17l-1.66,1.06,4.35-2.67c30.86-19,34.61-20.94,36.15-20.55a1.72,1.72,0,0,1,1,.75c.74,1.28,1.07,1.86-9.7,9,13.41-8,17.48-9.93,18.8-9.6a1.69,1.69,0,0,1,1,.77c.71,1.24,1,1.81-9.25,8.54,11.19-6.64,13.34-7.5,14.39-7.23a1.72,1.72,0,0,1,1,.75c.87,1.52-.74,2.78-3.44,4.72-.63.45-1.35.95-2.17,1.5,4.51-2.44,6.42-3.11,7.28-2.89a1.7,1.7,0,0,1,1,.77c.75,1.31-.3,2.4-2.43,4,10.72-6.29,14.33-7.91,15.57-7.6a1.65,1.65,0,0,1,1,.78c.68,1.17,1,1.79-7.71,7.56,26.88-16.27,37.28-22,39.51-21.39a1.71,1.71,0,0,1,1.09.81c.67,1.15.55,2.23-6.07,6.76,9-5.19,11.94-6.46,13-6.19a1.75,1.75,0,0,1,1,.76c.51.88.58,1.68-2.45,4.05,2.72-1.3,4.25-1.77,4.93-1.6a1.71,1.71,0,0,1,1.06.79c.61,1.06,1,1.71-5.77,6.26,5.39-2.88,8.09-3.93,9.12-3.67a1.72,1.72,0,0,1,1.08.81c.87,1.5-.34,2.65-5,5.8l-.15.11a4,4,0,0,1,2.07-.33,1.74,1.74,0,0,1,1.09.81c.87,1.5-.48,2.67-4.3,5.29,10.49-6.15,13.55-7.52,14.63-7.25a1.72,1.72,0,0,1,1,.75c.74,1.28.54,2.42-8.63,8.47,7.33-4.14,10-5.23,11-5a1.62,1.62,0,0,1,1,.76c.87,1.51-.44,2.77-4.82,5.8-1.46,1-3.28,2.21-5.48,3.62,4.61-2.5,6.43-3.15,7.21-2.95a1.79,1.79,0,0,1,1,.76c.7,1.21,1.13,1.95-9.14,8.72,7.54-4.28,10.38-5.45,11.45-5.18a1.62,1.62,0,0,1,1,.78c.87,1.5,1.23,2.13-18.29,14.41,21.75-13,25.84-15,27.22-14.61a1.76,1.76,0,0,1,1,.75c.89,1.55-.43,2.81-5.14,6.06l-1,.69a3.29,3.29,0,0,1,1.83-.34,1.7,1.7,0,0,1,1,.75c.8,1.38,1.11,1.92-13.11,10.91,15.36-9.23,19.15-11.09,20.44-10.77a1.73,1.73,0,0,1,1,.76c.88,1.53-.74,2.65-3.43,4.5-.92.63-2,1.37-3.37,2.24,7.12-4.1,8.8-4.68,9.66-4.46a1.72,1.72,0,0,1,1,.75c.9,1.56-.73,2.81-4,5.06-.55.39-1.17.81-1.85,1.27,3.72-2,4.74-2.29,5.37-2.13a1.67,1.67,0,0,1,1,.73c.83,1.45-.69,2.55-2.78,4.07-1.54,1.11-3.79,2.64-6.89,4.67-5.75,3.77-13.43,8.64-21.58,13.79l-12.11,7.68c5-3,10.16-6.2,15-9.17,31.54-19.36,35.1-21.23,36.64-20.84a1.73,1.73,0,0,1,1,.74c.84,1.47.63,2.08-10.05,9.05-2.34,1.52-5,3.23-7.89,5,16.58-10,17.69-10.41,18.72-10.15a1.67,1.67,0,0,1,1,.74c.81,1.4.4,2-7.59,7.54-3.52,2.46-8,5.5-12.59,8.58a1.57,1.57,0,0,1,.84.68,1.51,1.51,0,0,1-.55,2.05,1.64,1.64,0,0,1-.55.19c-1.12.51-5.94,3.47-9.85,5.86C1020,664.13,1016.82,666,1014.77,667.21Zm18.43-12.65Zm0,0Zm0,0Zm0,0h0Zm0,0h0Zm0,0Zm0,0Zm-48.61-22.3c-5.93,3.58-12.09,7.32-18.05,10.95l-.07,0C972.43,639.61,978.63,635.86,984.58,632.23Zm-35.42,6c-11.53,6.81-23.77,14.07-33.31,19.92C925.37,652.62,937.42,645.36,949.16,638.23Zm37.11-30.66c-3.75,2.23-7.78,4.65-12,7.18C978.48,612.26,982.52,609.84,986.27,607.57Zm-60.2,22.17c-12,7-24.52,14.48-34,20.33C901.45,644.63,913.7,637.25,926.07,629.74Zm51.75-34.59c-12.12,7-29.39,17.55-45.27,27.29,17.38-10.23,37.41-22,49.31-29.6ZM917.2,493.26c42.33-24.31,90.71-52.21,105.81-63-15.52,7.94-58.07,33.88-96.33,57.21Zm-97.68,54.27c14.65-7.52,47.57-27.3,80.3-47.2C866.8,519.23,833.4,538.46,819.52,547.53ZM924.8,482.59c39.13-22.4,81.75-46.95,94.87-56.24-3.8,1.8-9.5,4.9-16.5,8.91-8.62,5.3-19.84,11.94-33.88,20.09C955,464,939.47,473.55,924.8,482.59ZM820.92,541.28c11.78-6,36-20.58,62.52-36.79C857,519.59,832.18,534,820.92,541.28Zm86.63-54c19.46-11.09,40.7-23.18,59.59-34.15,14.4-8.73,26-15.62,34.93-20.71,8.12-5,14.36-9,17.87-11.68-14.85,6.82-64.53,37.24-105.4,62.26Zm-86,47.59c14.87-7.58,55.15-32.24,91.39-54.43l2.12-1.29C876.6,501.23,835.18,525.18,821.58,534.89ZM960.3,449.77c20.83-12,39.85-23.11,50.73-30C999.81,425.94,981,437.19,960.3,449.77ZM818.9,530.84c12.93-6.51,41.09-23.36,70.44-41.23C860.42,506.09,831.31,522.78,818.9,530.84Zm104.29-64c35.5-20.25,71.66-41.15,84.49-50.25C993.36,424.07,956.78,446.38,923.19,466.88ZM821.91,523.59c13.23-6.88,40.58-23.26,68.59-40.29C862.68,499.22,834.63,515.37,821.91,523.59Zm99-61.14c34.64-19.85,70.4-40.57,83.23-49.65C989.9,420.24,953.76,442.35,920.94,462.45Zm-103,57.5c13.56-6.56,49.35-28.21,83.39-49C867.25,490.3,830.43,511.28,817.92,520Zm101-62.48c29.67-16.9,60.68-34.74,73.46-43.37C978.6,421.37,947.73,440,918.93,457.47Zm-89.82,50.16c12.64-6.94,36.63-21.38,60.91-36.12C865.52,485.55,841.15,499.71,829.11,507.63Zm89.52-55.92c26.61-15.21,53.93-30.91,65.86-38.75C971.92,419.41,945.22,435.49,918.63,451.71Zm-63,34.9c-5.76,3.39-11.08,6.56-15.75,9.39C844.6,493.22,849.93,490,855.63,486.61Zm42.09-27.92,9.67-5.58c30.52-17.62,64.7-37.45,77.77-46.37-15.25,7.8-53.52,31.21-85.4,50.7Zm-67.49,37c12.86-7.22,35.3-20.85,57.49-34.4C865.14,474.43,842.57,487.72,830.23,495.69ZM962.29,414c-9.38,5.41-21.32,12.57-33.81,20.15,14.73-8.59,28.63-16.77,38.31-22.72C965.37,412.22,963.86,413.08,962.29,414ZM833.64,487.85c11.94-6.73,31.49-18.58,51.17-30.59C865.13,468.72,845.26,480.42,833.64,487.85Zm120.91-75.3c-10.2,5.89-23.71,14.06-37.52,22.49,16.85-9.82,33-19.34,43.18-25.71C958.47,410.3,956.58,411.38,954.55,412.55Zm-99.16,56.68c-5.37,3.17-10.4,6.16-14.84,8.84C845,475.46,850,472.46,855.39,469.23Zm85.83-53.79L936,418.61ZM842.8,471.11c14.08-7.8,39.31-23.17,60.24-36l-2.21,1.29C880.16,448.54,855.92,462.73,842.8,471.11Zm27.92-43.28Zm0,0Z" transform="translate(-809.89 -397.42)"/><path class="cls-2" d="M998.63,439.35c.2.35,9.85-6.21,10.08-5.82.35.6-21.7,18-21.31,18.62.6,1,42.73-26,43.32-25,.76,1.32-42.08,28.79-41.56,29.69.78,1.35,41.1-25.15,41.72-24.09.7,1.22-48.75,31.9-48,33.25s57.28-35,58.11-33.55-55.93,35.94-55.17,37.25c1,1.67,61.47-37.76,62.45-36.05.78,1.35-61.41,39.53-60.61,40.92,1,1.65,58.82-36.29,59.83-34.55s-60.19,38.11-59.28,39.68c.81,1.4,69-42.21,70-40.43,1.11,1.93-74,45.05-72.74,47.31,1.12,1.94,67.42-41.14,68.37-39.48,1,1.81-62,39.82-61,41.55.82,1.41,68.65-41.95,69.65-40.22.9,1.57-66.85,42.18-65.92,43.79,1.14,2,60.34-37.28,61.4-35.45.9,1.57-64,40.05-63.06,41.73,1.11,1.92,66.35-40.61,67.35-38.89,1.17,2-67.24,42.86-66.33,44.43,1,1.77,64-38.87,64.79-37.41.94,1.61-60.8,39.2-60,40.61s64-38.9,64.85-37.44c1,1.77-58.33,38-57.5,39.43s52.93-32.48,53.76-31c.57,1-46.86,30.8-46.07,32.16.63,1.1,48.09-29.35,48.78-28.16.44.76-34.94,25.4-34.49,26.17s24.59-15.5,25.15-14.53" transform="translate(-809.89 -397.42)"/><path class="cls-3" d="M994.4,581.79c.23.4,13.39-8.1,13.55-7.82.29.49-19.63,16.69-19.26,17.33.6,1,34.07-21,34.63-20,.45.78-34.21,24.38-33.61,25.43.83,1.44,46-28.39,46.76-27,1,1.73-55.66,36.42-55,37.62,1,1.66,56.31-34.62,57.22-33s-53.65,35.35-52.93,36.59c.92,1.6,56-34.75,57-32.93.84,1.45-56.53,36.4-55.71,37.82,1.08,1.88,66.21-40.49,67.19-38.79,1.24,2.14-71.77,45.12-70.8,46.81.84,1.46,74.6-45.11,75.49-43.58,1.22,2.12-71.61,44.49-70.4,46.58,1.09,1.9,64.68-39.93,65.8-38,.78,1.36-64,40.73-63,42.43s66.26-40.69,67.31-38.87-66.16,42.57-65.32,44c1.12,1.94,64.73-39.69,65.74-37.95s-63.33,39.46-62.31,41.23c.86,1.49,65.25-40.23,66.35-38.31.85,1.46-61.44,38.89-60.41,40.67.85,1.46,61.83-38.12,62.88-36.3.75,1.3-59.64,38.74-58.92,40s56.56-34.31,57.28-33.07-53.75,35-52.88,36.49,54.1-33.09,54.9-31.7c.66,1.15-47.48,31-46.74,32.23.51.89,42.85-26.28,43.52-25.12.4.69-31.66,22.54-31.19,23.36s29.44-18.23,30-17.31" transform="translate(-809.89 -397.42)"/></svg>